# xmcd
#
# Track frame offsets:
#	150
#	20192
#	36262
#	58548
#	69841
#	78886
#	96002
#	108109
#	127079
#	137675
#	155047
#	168071
#	184599
#
# Disc length: 2734 seconds
# Revision: 1
# Processed by: cddbd v1.5.2PL0 Copyright (c) Steve Scherf et al.
# Submitted via: dBpowerAMP V12.0
#
DISCID=a30aac0d
DTITLE=Balsam Range - Five
DYEAR=2014
DGENRE=Bluegrass
TTITLE0=Moon Over Memphis
TTITLE1=Chasing Someone Else's Dreams
TTITLE2=From A Georgia Battlefield
TTITLE3=Stacking Up The Rocks
TTITLE4=Monday Blues
TTITLE5=Songs I've Sung
TTITLE6=Too High A Price To Pay
TTITLE7=The Future's Not What It Used To Be
TTITLE8=Don't Watch Those Tears
TTITLE9=I Spend My Days Below The Ground
TTITLE10=Backdraft (You Light It, You Fight It)
TTITLE11=Matthew
TTITLE12=Everything That Glitters (Is Not Gold)
EXTD=
EXTT0=
EXTT1=
EXTT2=
EXTT3=
EXTT4=
EXTT5=
EXTT6=
EXTT7=
EXTT8=
EXTT9=
EXTT10=
EXTT11=
EXTT12=
PLAYORDER=
